<svg width="80" height="80" viewBox="0 0 80 80" fill="none" xmlns="http://www.w3.org/2000/svg">
<path d="M79.7934 17.543C79.4328 15.7264 78.6273 14.0641 77.5025 12.6908C77.2653 12.3916 77.0175 12.1236 76.7489 11.8556C74.7559 9.85283 71.9587 8.60345 68.903 8.60345H11.097C8.04125 8.60345 5.25406 9.85283 3.25172 11.8556C2.98375 12.1236 2.73594 12.3916 2.49813 12.6908C1.37266 14.0639 0.567187 15.7264 0.216563 17.543C0.0725 18.2441 0 18.9686 0 19.7011V60.3C0 61.8575 0.330312 63.3547 0.919375 64.7067C1.46578 65.9974 2.27141 67.1652 3.25156 68.1444C3.5 68.3922 3.74672 68.62 4.01594 68.8466C5.93563 70.4364 8.41359 71.3966 11.097 71.3966H68.903C71.5873 71.3966 74.0761 70.4364 75.9847 68.8366C76.2531 68.62 76.5011 68.3922 76.7489 68.1444C77.7286 67.1652 78.5341 65.9974 79.0917 64.7067V64.6967C79.6806 63.3447 79.9998 61.8575 79.9998 60.3002V19.7011C80 18.9686 79.9286 18.2441 79.7934 17.543ZM7.26703 15.8705C8.25844 14.8802 9.58984 14.2806 11.097 14.2806H68.903C70.4102 14.2806 71.7533 14.8802 72.733 15.8705C72.9083 16.0469 73.0734 16.2435 73.2192 16.4388L42.9213 42.8442C42.0856 43.5766 41.0534 43.9383 40 43.9383C38.9572 43.9383 37.9256 43.5766 37.0789 42.8442L6.7925 16.4275C6.92656 16.2322 7.09172 16.0469 7.26703 15.8705ZM5.67719 60.3V22.3024L27.6028 41.4297L5.68828 60.5367C5.67719 60.4642 5.67719 60.3827 5.67719 60.3ZM68.903 65.7183H11.097C10.1156 65.7183 9.19734 65.4603 8.41359 65.007L31.5352 44.8572L33.6937 46.735C35.5002 48.3047 37.7606 49.0997 40 49.0997C42.2509 49.0997 44.5112 48.3047 46.3175 46.735L48.475 44.8572L71.5875 65.007C70.8027 65.4603 69.8844 65.7183 68.903 65.7183ZM74.3228 60.3C74.3228 60.3827 74.3228 60.4642 74.3122 60.5367L52.3978 41.4408L74.3228 22.3125V60.3Z" fill="#202429"/>
</svg>
